<svg xmlns="http://www.w3.org/2000/svg" version="1.1" xmlns:xlink="http://www.w3.org/1999/xlink" xmlns:svgjs="http://svgjs.dev/svgjs" width="1000" height="1000" viewBox="0 0 1000 1000"><rect width="1000" height="1000" fill="#000000"></rect><g transform="matrix(0.7,0,0,0.7,149.57575757575756,282.1265587044535)"><svg viewBox="0 0 396 247" data-background-color="#ffffff" preserveAspectRatio="xMidYMid meet" height="623" width="1000" xmlns="http://www.w3.org/2000/svg" xmlns:xlink="http://www.w3.org/1999/xlink"><g id="tight-bounds" transform="matrix(1,0,0,1,0.2400000000000091,-0.09999999999999432)"><svg viewBox="0 0 395.52 247.2" height="247.2" width="395.52"><g><svg></svg></g><g><svg viewBox="0 0 395.52 247.2" height="247.2" width="395.52"><g transform="matrix(1,0,0,1,75.54432,70.80101339925835)"><svg viewBox="0 0 244.43135999999998 105.5979732014833" height="105.5979732014833" width="244.43135999999998"><g><svg viewBox="0 0 244.43135999999998 105.5979732014833" height="105.5979732014833" width="244.43135999999998"><g><svg viewBox="0 0 244.43135999999998 105.5979732014833" height="105.5979732014833" width="244.43135999999998"><g><svg viewBox="0 0 244.43135999999998 105.5979732014833" height="105.5979732014833" width="244.43135999999998"><g id="textblocktransform"><svg viewBox="0 0 244.43135999999998 105.5979732014833" height="105.5979732014833" width="244.43135999999998" id="textblock"><g><svg viewBox="0 0 244.43135999999998 105.5979732014833" height="105.5979732014833" width="244.43135999999998"><g transform="matrix(1,0,0,1,0,0)"><svg width="244.43135999999998" viewBox="0 -34.95000076293945 80.9000015258789 34.95000076293945" height="105.5979732014833" data-palette-color="#000000"><path d="M27.55-2.15L39.1-2.15 39.1 0 0 0 0-2.15 4.85-2.15 4.85-34.95 16.85-34.95Q26.25-34.95 31.3-30.38 36.35-25.8 36.35-17.5L36.35-17.5Q36.35-6.35 27.55-2.15L27.55-2.15ZM30.4-17.5L30.4-17.5Q30.4-29.5 16.65-29.5L16.65-29.5 10.75-29.5 10.75-5.55 17.3-5.55Q23.65-5.55 27.03-8.58 30.4-11.6 30.4-17.5ZM39.1-2.15L43.95-2.15 43.95-34.95 49.85-34.95 70.15-8.85 70.15-34.95 76.05-34.95 76.05-2.15 80.9-2.15 80.9 0 69.65 0 49.85-25.5 49.85 0 39.1 0 39.1-2.15Z" opacity="1" transform="matrix(1,0,0,1,0,0)" fill="#ffffff" class="wordmark-text-0" data-fill-palette-color="primary" id="text-0"></path></svg></g></svg></g></svg></g></svg></g><g></g></svg></g></svg></g></svg></g><g><path d="M103.447 45.872A122.216 122.216 0 0 1 292.073 45.872L282.55 45.872A112.693 112.693 0 0 0 112.97 45.872L103.447 45.872M103.447 201.328A122.216 122.216 0 0 0 292.073 201.328L282.55 201.328A112.693 112.693 0 0 1 112.97 201.328L103.447 201.328" fill="#ffffff" stroke="transparent" data-fill-palette-color="tertiary"></path></g></svg></g><defs></defs></svg><rect width="395.52" height="247.2" fill="none" stroke="none" visibility="hidden"></rect></g></svg></g></svg>